<svg width="704" height="482" viewBox="0 0 704 482" fill="none" xmlns="http://www.w3.org/2000/svg">
<g clip-path="url(#clip0_139_202)">
<path d="M258.798 473.84C258.995 473.849 259.191 473.797 259.358 473.691C259.524 473.586 259.655 473.431 259.731 473.249C259.807 473.067 259.826 472.866 259.784 472.673C259.742 472.48 259.641 472.304 259.496 472.17L259.43 471.908L259.456 471.845C259.655 471.375 259.988 470.975 260.414 470.694C260.839 470.413 261.338 470.264 261.848 470.266C262.358 470.268 262.856 470.421 263.279 470.705C263.703 470.989 264.033 471.391 264.228 471.862C265.009 473.742 266.002 475.625 266.247 477.613C266.355 478.492 266.309 479.382 266.113 480.245C267.946 476.246 268.898 471.9 268.904 467.501C268.904 466.397 268.843 465.294 268.72 464.196C268.619 463.297 268.478 462.404 268.298 461.518C267.315 456.707 265.206 452.198 262.143 448.362C260.66 447.553 259.461 446.308 258.707 444.797C258.434 444.254 258.241 443.674 258.134 443.075C258.459 442.218 258.63 441.31 258.639 440.393C258.872 440.04 259.289 439.864 259.544 439.519C260.809 437.802 262.554 438.102 263.464 440.435C265.409 441.416 265.428 443.045 264.235 444.611C263.475 445.607 263.371 446.955 262.705 448.022C262.773 448.109 262.845 448.194 262.913 448.282C264.166 449.893 265.258 451.624 266.174 453.448C265.951 451.404 266.217 449.337 266.949 447.416C267.691 445.625 269.082 444.117 270.307 442.57C270.631 442.154 271.071 441.843 271.571 441.678C272.072 441.512 272.61 441.498 273.118 441.638C273.626 441.778 274.081 442.066 274.426 442.465C274.771 442.863 274.989 443.355 275.054 443.879L275.062 443.947C274.88 444.05 274.702 444.159 274.528 444.274C274.309 444.42 274.139 444.629 274.041 444.873C273.943 445.118 273.921 445.386 273.978 445.643C274.035 445.9 274.168 446.134 274.36 446.314C274.552 446.494 274.794 446.612 275.054 446.652L275.081 446.656C275.016 447.312 274.902 447.962 274.738 448.6C276.31 454.678 272.917 456.891 268.073 456.991C267.966 457.045 267.862 457.1 267.755 457.152C268.675 459.759 269.252 462.475 269.471 465.23C269.596 466.856 269.588 468.489 269.449 470.114L269.458 470.056C269.809 468.25 270.772 466.62 272.186 465.441C274.285 463.717 277.251 463.082 279.516 461.695C279.757 461.541 280.037 461.458 280.323 461.457C280.609 461.457 280.889 461.538 281.13 461.691C281.372 461.845 281.564 462.064 281.685 462.323C281.806 462.582 281.851 462.871 281.813 463.154L281.804 463.215C281.466 463.352 281.137 463.511 280.819 463.689C280.638 463.792 280.459 463.901 280.285 464.016C280.066 464.162 279.897 464.371 279.799 464.616C279.7 464.86 279.678 465.128 279.735 465.385C279.792 465.642 279.926 465.876 280.118 466.056C280.31 466.236 280.552 466.354 280.812 466.394L280.839 466.398L280.893 466.407C280.317 467.784 279.507 469.052 278.5 470.155C277.517 475.46 273.297 475.964 268.783 474.419H268.78C268.285 476.571 267.568 478.666 266.639 480.67H258.99C258.962 480.585 258.938 480.498 258.913 480.413C259.621 480.457 260.332 480.415 261.03 480.286C260.462 479.59 259.894 478.888 259.327 478.192C259.314 478.179 259.302 478.165 259.291 478.15C259.003 477.794 258.713 477.44 258.425 477.084L258.425 477.083C258.409 475.991 258.535 474.901 258.798 473.84L258.798 473.84Z" fill="#F2F2F2"/>
<path d="M68.2056 473.84C68.0083 473.849 67.813 473.797 67.6461 473.691C67.4792 473.586 67.3489 473.431 67.2727 473.249C67.1965 473.067 67.1781 472.866 67.2201 472.673C67.2621 472.48 67.3624 472.304 67.5075 472.17L67.5735 471.908L67.5473 471.845C67.3485 471.375 67.0154 470.975 66.5899 470.694C66.1643 470.413 65.6653 470.264 65.1554 470.266C64.6456 470.268 64.1476 470.421 63.7242 470.705C63.3007 470.989 62.9707 471.391 62.7754 471.862C61.9949 473.742 61.0012 475.625 60.7566 477.613C60.6488 478.492 60.6943 479.382 60.8909 480.245C59.0578 476.246 58.106 471.9 58.0998 467.501C58.0995 466.397 58.1608 465.294 58.2836 464.196C58.385 463.297 58.5258 462.404 58.7058 461.518C59.6883 456.707 61.7978 452.198 64.861 448.362C66.3436 447.553 67.5425 446.308 68.2964 444.797C68.5695 444.254 68.7625 443.674 68.8694 443.075C68.5445 442.218 68.3737 441.31 68.3649 440.393C68.1319 440.04 67.7147 439.864 67.4602 439.519C66.1942 437.802 64.45 438.102 63.5395 440.435C61.5943 441.416 61.5755 443.045 62.769 444.611C63.5283 445.607 63.6327 446.955 64.2989 448.022C64.2304 448.109 64.1591 448.194 64.0906 448.282C62.8376 449.893 61.7455 451.624 60.83 453.448C61.0526 451.404 60.7869 449.337 60.0547 447.416C59.3126 445.625 57.9217 444.117 56.6968 442.57C56.3728 442.154 55.9328 441.843 55.4325 441.678C54.9322 441.512 54.394 441.498 53.8858 441.638C53.3777 441.778 52.9226 442.066 52.5779 442.465C52.2332 442.863 52.0144 443.355 51.9492 443.879L51.9419 443.947C52.1238 444.05 52.3019 444.159 52.4762 444.274C52.6951 444.42 52.8647 444.629 52.9628 444.873C53.0609 445.118 53.0829 445.386 53.0259 445.643C52.969 445.9 52.8357 446.134 52.6436 446.314C52.4515 446.494 52.2095 446.612 51.9493 446.652L51.9227 446.656C51.9875 447.312 52.1021 447.962 52.2654 448.6C50.694 454.678 54.0865 456.891 58.9306 456.991C59.0375 457.045 59.1417 457.1 59.2486 457.152C58.3288 459.759 57.7519 462.475 57.5323 465.23C57.408 466.856 57.4153 468.489 57.5542 470.114L57.546 470.056C57.195 468.25 56.2314 466.62 54.818 465.441C52.7186 463.717 49.7526 463.082 47.4877 461.695C47.247 461.541 46.9672 461.458 46.6811 461.457C46.3951 461.457 46.1148 461.538 45.8734 461.691C45.6319 461.845 45.4394 462.064 45.3184 462.323C45.1975 462.582 45.1532 462.871 45.1907 463.154L45.2 463.215C45.5376 463.352 45.8664 463.511 46.1843 463.689C46.3662 463.792 46.5443 463.901 46.7186 464.016C46.9375 464.162 47.1071 464.371 47.2052 464.616C47.3033 464.86 47.3253 465.128 47.2683 465.385C47.2114 465.642 47.0781 465.876 46.886 466.056C46.6939 466.236 46.4519 466.354 46.1917 466.394L46.1651 466.398L46.1103 466.407C46.6871 467.784 47.4968 469.052 48.5038 470.155C49.4863 475.46 53.7064 475.964 58.2205 474.419H58.2233C58.7185 476.571 59.4362 478.666 60.3646 480.67H68.014C68.0414 480.585 68.0661 480.498 68.0908 480.413C67.3828 480.457 66.6719 480.415 65.9742 480.286C66.5417 479.59 67.1093 478.888 67.6768 478.192C67.6895 478.179 67.7014 478.165 67.7124 478.15C68.0003 477.794 68.2909 477.44 68.5788 477.084L68.579 477.083C68.5943 475.991 68.469 474.901 68.206 473.84L68.2056 473.84Z" fill="#F2F2F2"/>
<path d="M-61.8519 481.771L312.852 482C313.002 482 313.152 481.978 313.291 481.933C313.43 481.889 313.557 481.824 313.664 481.741C313.77 481.659 313.855 481.561 313.913 481.454C313.97 481.346 314 481.231 314 481.114C314 480.998 313.97 480.882 313.913 480.775C313.855 480.667 313.77 480.569 313.664 480.487C313.557 480.405 313.43 480.34 313.291 480.295C313.152 480.251 313.002 480.228 312.852 480.229L-61.8519 480C-62.0025 480 -62.1517 480.022 -62.291 480.067C-62.4303 480.111 -62.5569 480.176 -62.6635 480.259C-62.7702 480.341 -62.8548 480.439 -62.9125 480.546C-62.9703 480.654 -63 480.769 -63 480.886C-63 481.002 -62.9703 481.118 -62.9125 481.225C-62.8548 481.333 -62.7702 481.431 -62.6635 481.513C-62.5569 481.595 -62.4303 481.66 -62.291 481.705C-62.1517 481.749 -62.0025 481.772 -61.8519 481.771V481.771Z" fill="#CACACA"/>
<path d="M183.815 62.7805C185.362 59.6644 187.836 57.0771 189.349 53.944C190.862 50.8109 191.156 46.6175 188.635 44.2194C186.495 42.1831 183.143 42.1546 180.583 40.6797C174.062 36.9221 174.069 24.987 166.614 23.9558C162.989 23.4543 159.709 26.1732 157.518 29.1046C155.327 32.0362 153.581 35.4569 150.542 37.4964C147.102 39.8052 142.655 39.9056 138.835 41.5092C131.512 44.5839 127.672 52.49 124.461 59.7559C122.393 64.4365 120.278 69.485 121.237 74.5115C119.151 75.8095 120.081 79.3006 122.163 80.6046C124.245 81.9086 126.86 81.8796 129.251 82.4444C134.275 83.6316 138.39 87.6319 140.34 92.4128C141.861 96.1391 142.172 100.23 142.465 104.244C142.974 111.209 143.483 118.174 143.992 125.139C144.218 128.237 144.515 131.53 146.401 133.999C148.287 136.468 152.371 137.503 154.491 135.232C156.517 133.061 155.605 129.625 155.564 126.657C155.523 123.688 158.206 119.991 160.737 121.544L161.629 119.519C167.409 117.449 172.47 113.758 176.206 108.886C179.942 104.015 182.196 98.1698 182.697 92.0507C183.343 82.1946 179.421 71.6267 183.815 62.7805Z" fill="#F3F3F3"/>
<path d="M189.721 125.279C190.279 124.753 190.675 124.078 190.863 123.334C191.05 122.59 191.02 121.808 190.778 121.08C190.535 120.353 190.09 119.709 189.494 119.226C188.898 118.744 188.176 118.441 187.413 118.355L187.423 118.69C186.335 119.325 185.095 119.651 183.835 119.633C182.58 119.613 181.331 119.811 180.143 120.217C179.553 120.432 179.042 120.821 178.676 121.332C178.311 121.843 178.109 122.452 178.096 123.081C178.165 123.562 178.349 124.02 178.633 124.415C178.917 124.81 179.291 125.131 179.726 125.35C180.597 125.779 181.533 126.064 182.496 126.192C184.978 126.658 187.883 127.012 189.721 125.279Z" fill="#F3F3F3"/>
<path d="M238.122 62.9455C239.162 62.2385 240.044 61.3245 240.714 60.2608C241.039 59.7226 241.194 59.0987 241.158 58.4711C241.122 57.8434 240.897 57.2414 240.512 56.744C239.73 56.0649 238.723 55.701 237.687 55.7231C234.874 55.5131 232.046 55.8465 229.359 56.7051C232.118 59.1497 234.878 61.5944 237.637 64.039L238.122 62.9455Z" fill="#F3F3F3"/>
<path d="M224.324 69.3036C225.439 70.5346 225.084 72.444 224.768 74.0749C224.452 75.7057 224.412 77.7436 225.815 78.6333C227.03 79.4044 228.737 78.7752 229.626 77.6429C230.421 76.4353 230.905 75.05 231.036 73.6101C231.473 71.5175 231.67 69.3819 231.624 67.2446C231.571 65.0913 230.812 63.0151 229.463 61.3362C228.505 60.2444 227.23 59.4797 225.816 59.1493C224.401 58.8189 222.919 58.9393 221.577 59.4938L222.859 59.4306C221.927 60.6272 221.22 61.9833 220.774 63.4327C220.56 64.1608 220.544 64.933 220.73 65.6689C220.915 66.4049 221.294 67.0778 221.827 67.6178C222.588 68.2797 223.647 68.5564 224.324 69.3036Z" fill="#F3F3F3"/>
<path d="M287.22 48.6577L287.447 47.9557C286.494 48.5072 285.759 49.3694 285.366 50.3979C284.973 51.4265 284.944 52.559 285.286 53.6059C286.019 53.0276 286.585 52.2642 286.925 51.3944C287.265 50.5246 287.367 49.5799 287.22 48.6577Z" fill="#F3F3F3"/>
<path d="M274.83 58.7048C276.044 58.0175 277.079 57.0553 277.854 55.8954C278.629 54.7355 279.121 53.4103 279.292 52.0258C279.423 51.165 279.324 50.2846 279.003 49.475C278.839 49.0731 278.577 48.718 278.242 48.4414C277.907 48.1649 277.509 47.9753 277.083 47.8897L276.564 48.7069C275.82 48.0661 274.569 48.7251 274.256 49.6562C274.054 50.6229 274.138 51.6275 274.498 52.5473C274.857 53.4727 274.84 54.5016 274.452 55.4151C274.034 55.9523 273.563 56.4468 273.047 56.8912C272.795 57.1206 272.631 57.4305 272.582 57.7679C272.533 58.1053 272.602 58.4492 272.779 58.7409C273.268 59.2989 274.181 59.0647 274.83 58.7048Z" fill="#F3F3F3"/>
<path d="M269.547 54.14C269.991 53.3404 270.201 52.4315 270.152 51.518L269.016 51.1619C268.291 51.4561 267.647 51.9216 267.141 52.5187C266.987 52.673 266.869 52.8593 266.796 53.0645C266.722 53.2696 266.695 53.4884 266.716 53.7052C266.738 53.922 266.806 54.1315 266.918 54.3186C267.029 54.5058 267.181 54.6659 267.361 54.7876C267.542 54.9094 267.747 54.9896 267.963 55.0227C268.178 55.0558 268.398 55.0408 268.607 54.979C268.816 54.9171 269.008 54.8098 269.171 54.6647C269.333 54.5197 269.462 54.3405 269.547 54.14V54.14Z" fill="#F3F3F3"/>
<path d="M325.035 48.3944C325.138 48.4804 325.24 48.5688 325.343 48.6556C325.433 48.6365 325.519 48.6024 325.611 48.5912L325.035 48.3944Z" fill="#F3F3F3"/>
<path d="M323.216 58.3584C324.258 57.5151 325.301 56.6719 326.343 55.8287C326.897 55.4369 327.369 54.9407 327.732 54.3681C327.981 53.826 328.088 53.2297 328.044 52.6349C328 52.0402 327.806 51.4662 327.481 50.9666C326.904 50.081 326.181 49.2996 325.343 48.6555C324.422 48.8734 323.614 49.4213 323.07 50.1955C322.526 50.9697 322.286 51.9164 322.393 52.8564C322.581 54.0519 323.332 55.3304 322.719 56.3741C322.481 56.7805 322.07 57.0571 321.795 57.4398C321.52 57.8224 321.431 58.4318 321.809 58.7132C322.228 59.0256 322.809 58.6875 323.216 58.3584Z" fill="#F3F3F3"/>
<path d="M325.495 63.5202C325.883 63.541 326.27 63.4782 326.632 63.336C326.993 63.1938 327.319 62.9757 327.589 62.6963C328.982 61.5545 330.201 60.2152 331.207 58.7208C328.861 59.4638 326.516 60.2067 324.171 60.9496L324.902 61.8047C324.253 62.2286 324.734 63.3743 325.495 63.5202Z" fill="#F3F3F3"/>
<path d="M332.068 68.3478C332.212 68.7136 332.47 69.0225 332.806 69.2271C333.141 69.4318 333.534 69.5211 333.925 69.4813C334.314 69.4294 334.687 69.2928 335.017 69.0812C335.348 68.8695 335.628 68.5879 335.838 68.2562C336.195 67.7305 336.404 67.1191 336.445 66.4852C336.486 65.8513 336.357 65.218 336.071 64.6507C335.786 64.0834 335.353 63.6028 334.82 63.2586C334.286 62.9143 333.67 62.7189 333.035 62.6926L333.683 63.682C333.848 65.3707 331.552 66.7315 332.068 68.3478Z" fill="#F3F3F3"/>
<path d="M377.616 86.8433C378.25 87.3166 379.02 87.5715 379.812 87.5696C380.603 87.5677 381.372 87.3092 382.004 86.8328C382.414 86.4828 382.747 86.0519 382.983 85.5671C383.218 85.0823 383.351 84.5541 383.373 84.0156C383.395 83.4771 383.306 82.9398 383.11 82.4375C382.915 81.9351 382.618 81.4785 382.238 81.0962L381.041 81.765C380.376 81.3381 379.572 81.1854 378.798 81.3393C378.023 81.4932 377.338 81.9415 376.888 82.59C376.483 83.2697 376.335 84.0713 376.468 84.8508C376.601 85.6303 377.008 86.3367 377.616 86.8433V86.8433Z" fill="#F3F3F3"/>
<path d="M391.544 88.4202C392.127 88.2508 392.657 87.9346 393.083 87.5016C393.509 87.0687 393.817 86.5336 393.977 85.9476L391.648 85.6416C391.001 85.1524 390.247 84.823 389.448 84.6802C389.047 84.6202 388.638 84.6997 388.289 84.9054C387.94 85.111 387.672 85.4304 387.53 85.81C387.481 86.1329 387.515 86.4632 387.629 86.7693C387.743 87.0753 387.934 87.3471 388.183 87.5585C388.623 87.9778 389.163 88.2772 389.751 88.428C390.339 88.5789 390.957 88.5762 391.544 88.4202V88.4202Z" fill="#F3F3F3"/>
<path d="M381.928 93.076C381.969 93.4549 382.117 93.8142 382.354 94.1121C382.592 94.4099 382.91 94.634 383.27 94.758C383.663 94.9448 384.104 95.009 384.534 94.9423C384.965 94.8756 385.366 94.6811 385.684 94.3841C385.825 94.2253 385.926 94.0354 385.978 93.8299C386.03 93.6244 386.033 93.4094 385.986 93.2027C385.939 92.996 385.843 92.8035 385.706 92.6413C385.569 92.4791 385.396 92.3519 385.2 92.2701L383.454 91.9525C382.78 91.6031 381.917 92.3162 381.928 93.076Z" fill="#F3F3F3"/>
<path d="M280.604 105.356L279.253 104.121C279.612 104.623 280.073 105.043 280.604 105.356Z" fill="#F3F3F3"/>
<path d="M270.281 98.0878C271.113 101.952 275.275 105.101 279.054 103.939L279.253 104.121C278.05 102.475 277.846 100.039 278.127 97.9199C278.648 94.2893 280.076 90.8486 282.277 87.9151C284.478 84.9816 287.383 82.6498 290.723 81.135C291.638 80.8494 292.456 80.3163 293.087 79.5948C293.626 78.8072 293.425 77.4568 292.497 77.2343C291.993 77.1767 291.484 77.2945 291.057 77.5678L284.035 81.0239C280.489 82.7695 276.872 84.5651 274.086 87.3698C271.3 90.1744 269.449 94.2233 270.281 98.0878Z" fill="#F3F3F3"/>
<path d="M156.937 230.973C150.395 226.289 143.23 222.544 135.649 219.847C130.99 218.191 125.984 216.927 121.129 217.868C118.467 218.418 115.972 219.589 113.848 221.286C111.723 222.982 110.029 225.155 108.902 227.629C107.816 230.121 107.305 232.826 107.408 235.542C107.51 238.259 108.223 240.917 109.493 243.32C111.732 247.516 115.608 250.857 116.905 255.432C117.778 258.517 117.364 261.801 116.944 264.979C116.084 271.474 115.225 277.969 114.365 284.463C113.583 290.377 112.82 296.53 114.692 302.194C116.565 307.857 121.906 312.849 127.84 312.248L129.016 312.159C125.091 309.49 123.991 303.964 125.16 299.362C126.328 294.761 129.295 290.86 132.191 287.099C140.786 275.937 149.38 264.776 157.975 253.615C161.452 249.099 165.13 243.517 163.276 238.128C162.222 235.064 159.571 232.86 156.937 230.973Z" fill="#F3F3F3"/>
<path d="M98.3645 202.758C97.494 202.463 96.5746 203.118 96.0629 203.882C95.6492 204.702 95.1632 205.483 94.6106 206.216C93.2718 207.597 90.8318 207.322 89.3879 206.053C87.9439 204.783 87.3182 202.819 87.0379 200.917C86.7017 198.634 86.8469 196.087 88.3533 194.34C89.904 192.541 92.4529 192.058 94.7983 191.684C97.2211 191.298 99.9354 190.976 101.92 192.418C103.17 193.327 103.899 194.792 105.057 195.816C106.215 196.839 108.275 197.226 109.147 195.95C109.375 195.498 109.49 194.997 109.483 194.491C109.476 193.984 109.346 193.487 109.105 193.041C108.615 192.154 108.32 191.172 108.241 190.161C108.299 188.758 109.425 187.643 110.578 186.842C111.73 186.04 113.032 185.348 113.788 184.165C114.718 182.71 114.619 180.836 115.196 179.208C116.592 175.268 121.575 173.516 123.027 169.596C123.377 168.772 123.416 167.849 123.137 166.997C122.53 165.436 120.888 165.743 120.787 163.834C120.691 162.009 122.213 160.219 123.76 159.457C125.893 158.406 128.379 158.491 130.756 158.427C133.133 158.363 135.694 158.047 137.438 156.431C138.002 155.849 138.438 155.155 138.715 154.393C138.993 153.631 139.107 152.819 139.049 152.01C138.991 151.201 138.763 150.414 138.38 149.699C137.997 148.985 137.467 148.359 136.825 147.863C135.526 146.966 133.883 146.653 132.618 145.707C131.043 144.528 130.297 142.564 129.07 141.026C128.05 139.855 126.882 138.821 125.596 137.95C124.543 137.168 123.49 136.387 122.437 135.606C120.534 134.194 118.554 132.746 116.238 132.242C113.922 131.739 111.165 132.451 110.005 134.518C109.547 135.439 109.298 136.449 109.273 137.478C109.167 139.898 109.268 142.324 109.575 144.728C109.766 146.662 109.957 148.597 110.148 150.532C110.319 152.266 110.136 154.553 108.452 155.003C104.717 156.002 105.977 150.479 105.149 148.787C103.881 146.197 98.0554 144.953 95.565 143.874C94.0096 143.2 92.3681 142.456 91.429 141.045C90.2601 139.288 90.5 136.897 91.4166 134.997C92.3333 133.097 93.8267 131.55 95.1835 129.934C96.5665 128.287 97.8259 126.541 99.0838 124.796C100.543 122.773 102.002 120.75 103.461 118.726C105.332 116.131 107.299 112.965 106.236 109.947C106.006 109.543 105.661 109.217 105.246 109.008C104.831 108.799 104.363 108.717 103.902 108.773C103.441 108.828 103.006 109.019 102.652 109.32C102.299 109.622 102.042 110.021 101.914 110.468C101.448 112.097 102.691 114.177 101.502 115.384C101.095 115.712 100.585 115.887 100.062 115.877C99.5395 115.867 99.0368 115.674 98.6421 115.331C97.8722 114.62 97.2857 113.733 96.9328 112.746C95.4925 109.545 94.0892 106.324 92.6107 103.14C92.1434 102.134 91.6556 100.411 90.2392 100.58C89.0096 100.728 88.3455 102.52 88.3882 103.56C88.4504 105.074 89.287 106.426 89.9264 107.8C90.5658 109.173 91.0129 110.823 90.3109 112.165C89.422 113.865 87.1707 114.247 85.2534 114.191C81.6396 114.081 78.0986 113.147 74.9012 111.459C74.8177 113.235 74.7342 115.012 74.6506 116.788C72.1058 115.723 69.561 114.657 67.0162 113.592C66.522 113.385 66.0277 113.178 65.5334 112.971C63.3868 112.073 61.2375 111.173 59.0276 110.444C57.773 110.03 56.501 109.671 55.2294 109.313C54.4564 109.095 53.6835 108.877 52.9105 108.659C51.3852 108.118 49.7674 107.888 48.1519 107.98C46.4545 108.193 44.9406 109.105 43.3708 109.786C39.8686 111.307 35.3387 109.777 31.5856 109.75C30.0969 107.577 28.087 105.811 25.7398 104.615C23.3926 103.419 20.7829 102.83 18.1496 102.903C15.5162 102.976 12.9432 103.708 10.6658 105.033C8.38841 106.357 6.47937 108.231 5.11328 110.484C4.45342 111.625 3.86579 112.807 3.35384 114.022C2.84461 115.163 2.33537 116.304 1.82612 117.446C1.07908 119.12 0.315563 120.884 0.462397 122.711C0.609231 124.539 2.01007 126.406 3.84319 126.389C-0.47947 128.346 -1.37896 135.195 2.2917 138.202C3.30811 139.035 4.55451 139.579 5.46918 140.523C6.16049 141.236 6.62299 142.139 6.79732 143.117C6.97164 144.094 6.84984 145.102 6.44755 146.01C6.04526 146.918 5.38083 147.685 4.53953 148.213C3.69823 148.741 2.71845 149.005 1.72592 148.972C4.28682 149.962 7.10766 150.054 9.72763 149.233C12.3476 148.412 14.6119 146.727 16.1505 144.453C17.7199 141.996 18.4019 138.926 20.5368 136.94C23.3641 134.31 28.0341 134.514 31.295 136.582C34.5559 138.65 36.6188 142.171 38.0377 145.762C39.8972 150.468 41.0873 155.846 45.0488 158.994C46.9643 160.516 49.3901 161.372 51.0832 163.139C53.4943 165.654 53.9114 169.45 53.857 172.934C53.8027 176.418 53.4275 180.033 54.6965 183.278C55.9655 186.523 59.6036 189.192 62.8659 187.969C61.9314 190.742 61.96 193.749 62.9473 196.504C63.9345 199.259 65.8226 201.6 68.3057 203.148C67.7114 199.461 67.117 195.774 66.5227 192.087C69.485 192.921 71.405 195.795 72.5139 198.666C73.6227 201.537 74.2086 204.642 75.8159 207.266C78.3469 211.399 82.9301 213.18 87.5925 213.165C92.6292 213.148 94.5414 210.746 97.8607 207.209C98.5275 206.606 99.0336 205.846 99.3334 204.998C99.4689 204.57 99.4455 204.108 99.2674 203.697C99.0894 203.285 98.7688 202.952 98.3645 202.758V202.758Z" fill="#F3F3F3"/>
<path d="M112.626 202.574C109.811 202.132 106.996 201.689 104.181 201.247C105.657 202.134 107.132 203.021 108.608 203.909C109.839 204.728 111.177 205.372 112.584 205.824C113.29 206.046 114.034 206.121 114.77 206.044C115.506 205.966 116.218 205.738 116.862 205.374L116.502 204.685C115.934 203.25 114.151 202.814 112.626 202.574Z" fill="#F3F3F3"/>
<path d="M110.713 218.224L110.733 218.175C110.563 217.893 110.312 217.668 110.013 217.529C109.714 217.391 109.38 217.345 109.054 217.397C108.406 217.513 107.743 217.524 107.091 217.429C106.677 217.267 106.307 217.009 106.014 216.675C105.72 216.341 105.51 215.942 105.403 215.51C105.123 214.668 105.04 213.767 104.721 212.939C104.491 212.284 104.085 211.706 103.547 211.267C103.009 210.828 102.36 210.546 101.672 210.452C100.982 210.397 100.298 210.615 99.7677 211.06C99.2374 211.506 98.9035 212.142 98.8384 212.831C98.8926 213.541 99.1181 214.227 99.4956 214.83C99.7992 215.415 100.103 215.999 100.407 216.583C100.662 217.106 100.957 217.61 101.287 218.09C101.825 218.831 102.528 219.436 103.34 219.857C104.152 220.279 105.052 220.505 105.967 220.518C106.882 220.531 107.787 220.331 108.611 219.932C109.435 219.534 110.155 218.949 110.713 218.224V218.224Z" fill="#F3F3F3"/>
<path d="M94.2715 68.396C96.4152 69.6599 99.0997 70.531 100.118 72.8017L100.706 72.9915C100.065 73.7881 99.424 74.5846 98.783 75.381C97.9909 76.3653 97.158 77.4621 97.1766 78.7254C97.2021 80.4653 98.8756 81.7779 100.566 82.1881C102.371 82.5594 104.249 82.247 105.836 81.3115C107.423 80.3759 108.606 78.8841 109.155 77.1255C109.356 76.392 109.439 75.6313 109.615 74.8915C110.129 73.137 110.905 71.4701 111.917 69.9472C117.609 60.3697 123.301 50.7922 128.994 41.2147C129.703 40.0219 130.433 38.5951 129.9 37.314C129.616 36.7722 129.176 36.3279 128.636 36.0385C128.097 35.7492 127.484 35.6279 126.875 35.6903C125.66 35.8379 124.488 36.2321 123.431 36.8487C122.961 36.0236 122.298 35.3249 121.499 34.8125C120.7 34.3001 119.789 33.9894 118.843 33.9069C116.952 33.761 115.05 33.9267 113.212 34.3974C109.061 35.0238 105.058 36.3989 101.399 38.456C99.3969 39.4681 97.1937 40.7181 96.6129 42.8852C95.8984 45.5507 98.201 48.2674 100.852 49.0335C103.503 49.7996 106.333 49.1562 109.016 48.5114C109.319 49.8122 109.193 51.1762 108.656 52.3991C108.118 53.622 107.199 54.6379 106.036 55.2945C104.873 55.951 103.529 56.213 102.204 56.041C100.88 55.869 99.6468 55.2724 98.6899 54.3406C96.7667 52.4677 95.8247 49.2165 93.1841 48.7331C90.552 48.2513 88.4597 51.059 87.8788 53.6713C87.3106 56.4849 87.6188 59.4051 88.7619 62.0381C89.905 64.6711 91.828 66.8902 94.2715 68.396Z" fill="#F3F3F3"/>
<path d="M127.286 114.481C126.019 110.908 124.353 107.489 122.32 104.289C120.779 101.759 118.877 99.4667 116.675 97.4856C114.662 95.7471 112.348 94.3915 109.847 93.4857C107.42 92.6078 104.717 92.1741 102.263 92.9745C99.8093 93.775 97.7216 96.0569 97.7714 98.6378C97.8264 101.492 100.323 103.723 102.925 104.896C105.527 106.069 108.422 106.579 110.877 108.035C112.546 109.047 113.941 110.454 114.939 112.132C115.937 113.81 116.508 115.707 116.601 117.657L117.219 118.68C115.818 119.144 114.512 119.855 113.362 120.78C112.792 121.25 112.357 121.862 112.1 122.554C111.843 123.246 111.773 123.994 111.897 124.722C112.326 126.45 114.09 127.442 115.686 128.232C118.634 129.692 121.582 131.152 124.529 132.612C123.028 128.136 127.943 123.971 128.214 119.258C128.225 117.62 127.909 115.996 127.286 114.481V114.481Z" fill="#F3F3F3"/>
<path d="M53.1628 102.396C54.9511 103.785 57.7006 103.135 59.3388 101.572C60.977 100.009 61.7749 97.7851 62.519 95.6465C62.2472 97.7633 62.2729 99.9077 62.5954 102.017C62.7634 103.072 63.1485 104.081 63.7264 104.979C64.3043 105.878 65.0624 106.646 65.9527 107.236C66.761 107.68 67.6324 107.997 68.5366 108.177C72.7401 109.134 77.133 108.82 81.1578 107.275L81.1939 105.899C79.172 106.13 77.642 103.912 77.5085 101.881C77.375 99.8503 78.112 97.8587 78.1768 95.8246C78.2415 93.7905 77.2613 91.4138 75.2587 91.0519C75.6092 91.7559 75.737 92.5499 75.6251 93.3284C75.5133 94.1068 75.167 94.8327 74.6325 95.4095C74.0979 95.9862 73.4004 96.3865 72.6327 96.5571C71.8651 96.7276 71.0637 96.6603 70.3352 96.3641C68.0172 95.4217 67.1752 92.5975 65.3839 90.8503C64.2771 89.8656 62.9039 89.2302 61.437 89.0239C59.9701 88.8175 58.475 89.0495 57.1395 89.6906C55.8211 90.3634 54.6644 91.3145 53.7494 92.4782C52.8344 93.6418 52.183 94.9903 51.8401 96.4303C51.2961 98.5199 51.4575 101.072 53.1628 102.396Z" fill="#F3F3F3"/>
<path d="M108.353 87.9022L108.436 87.7675C107.936 86.3258 106.389 85.4805 104.879 85.2659C103.356 85.1654 101.827 85.216 100.315 85.4168C98.788 85.6143 97.2404 85.2734 95.938 84.4527C94.8983 83.6754 94.306 82.4525 93.4749 81.4553C92.6437 80.458 91.2985 79.638 90.0911 80.1148C88.7839 80.631 88.4352 82.4634 89.0695 83.7176C89.8168 84.9213 90.9441 85.8415 92.2731 86.3326C97.3057 88.6428 102.968 89.1956 108.353 87.9022V87.9022Z" fill="#F3F3F3"/>
<path d="M91.1737 92.2236C90.7556 92.5299 90.4722 92.986 90.3827 93.4965C90.2932 94.007 90.4046 94.5324 90.6935 94.9626C90.9824 95.3929 91.4266 95.6947 91.9329 95.805C92.4393 95.9152 92.9687 95.8254 93.4104 95.5543L93.8514 95.9896C94.4379 94.9392 94.6798 93.532 93.9297 92.5914C93.5963 92.2015 93.1306 91.9483 92.6221 91.8804C92.1135 91.8125 91.5978 91.9348 91.1737 92.2236V92.2236Z" fill="#F3F3F3"/>
<path d="M86.0135 95.992C86.0199 95.6167 85.9126 95.2482 85.7057 94.9351C85.4987 94.622 85.2018 94.3789 84.8541 94.2377C84.6174 94.1971 84.3749 94.2048 84.1412 94.2604C83.9076 94.316 83.6876 94.4183 83.4945 94.5612C83.3015 94.7041 83.1393 94.8846 83.0178 95.0918C82.8964 95.299 82.8181 95.5287 82.7878 95.767C82.7514 96.2524 82.8152 96.74 82.9752 97.1998C83.1352 97.6595 83.388 98.0814 83.7179 98.4393C83.9098 98.7276 84.1606 98.9719 84.4539 99.1561C84.7471 99.3404 85.0761 99.4604 85.419 99.5082C86.1102 99.5308 86.8149 98.8081 86.5346 98.1759L85.4793 98.1553C85.8045 97.4787 85.9863 96.7422 86.0135 95.992V95.992Z" fill="#F3F3F3"/>
<path d="M65.376 85.1835C65.7636 85.4976 66.1511 85.8118 66.5387 86.126C67.21 86.7064 67.9352 87.2213 68.7044 87.6638C70.0498 88.4092 71.6321 88.6029 73.1175 88.2041C73.8509 87.9949 74.5198 87.6045 75.0626 87.0688C75.6054 86.5331 76.0047 85.8694 76.2235 85.1388C76.6869 83.3925 75.931 81.5793 75.1913 79.931C75.0225 79.4593 74.7439 79.0345 74.3786 78.6917C74.1914 78.5259 73.9526 78.43 73.7028 78.4202C73.453 78.4103 73.2075 78.4873 73.0079 78.6378C72.8631 78.8181 72.7669 79.0324 72.7282 79.2604C72.6896 79.4883 72.7099 79.7224 72.7872 79.9403C72.9462 80.3745 73.0189 80.8356 73.0012 81.2977C72.9275 81.7535 72.4491 82.1843 72.0277 81.9958L71.9606 83.5474C69.9483 82.5286 68.884 79.8189 66.6445 79.5517C66.1419 79.4917 65.6325 79.5709 65.1718 79.7807C64.7111 79.9905 64.3169 80.3228 64.0321 80.7413C63.7473 81.1598 63.5829 81.6485 63.5569 82.1541C63.5308 82.6597 63.6441 83.1627 63.8844 83.6083C64.2732 84.2263 64.7801 84.7616 65.376 85.1835V85.1835Z" fill="#F3F3F3"/>
<path d="M60.5834 78.4855C61.0488 78.1663 61.4172 77.7247 61.6477 77.2095C61.8782 76.6943 61.962 76.1254 61.8898 75.5656C61.8341 75.2945 61.7193 75.0389 61.5537 74.8172C61.388 74.5954 61.1755 74.4129 60.9314 74.2826C60.6872 74.1522 60.4173 74.0773 60.1408 74.0631C59.8644 74.049 59.5883 74.0959 59.332 74.2005C58.7571 74.6304 58.3532 75.2502 58.1922 75.9499C57.6618 77.446 57.1315 78.9422 56.6011 80.4383L57.4924 79.7897C58.5953 79.5522 59.6437 79.1098 60.5834 78.4855V78.4855Z" fill="#F3F3F3"/>
<path d="M70.9126 69.3037C71.0719 69.1029 71.1852 68.8696 71.2445 68.6202C71.3039 68.3709 71.3079 68.1115 71.2562 67.8605C71.2046 67.6094 71.0985 67.3727 70.9456 67.1671C70.7926 66.9614 70.5964 66.7918 70.3708 66.6701L69.2563 66.5659C69.0028 66.6301 68.768 66.7527 68.5705 66.9241C68.3731 67.0954 68.2186 67.3107 68.1193 67.5525C68.0201 67.7944 67.9789 68.0562 67.9991 68.3168C68.0194 68.5775 68.1004 68.8298 68.2357 69.0534C68.371 69.2771 68.5569 69.466 68.7784 69.6048C68.9999 69.7437 69.2508 69.8287 69.5111 69.853C69.7714 69.8774 70.0337 69.8403 70.2771 69.7449C70.5205 69.6495 70.7382 69.4984 70.9126 69.3037V69.3037Z" fill="#F3F3F3"/>
<path d="M81.1666 71.0242C82.2066 71.5219 83.5232 71.9961 84.428 71.2815C84.696 71.0389 84.8954 70.73 85.006 70.3858C85.1165 70.0416 85.1345 69.6744 85.0579 69.3211C84.8955 68.6162 84.5817 67.9552 84.1382 67.3838C82.7546 65.397 80.9966 63.6994 78.9628 62.3859L78.4599 63.0393C77.7575 64.8633 77.0794 66.9927 78.059 68.684C78.7196 69.8241 79.978 70.4555 81.1666 71.0242Z" fill="#F3F3F3"/>
<path d="M88.9146 72.6475L90.8594 73.5273C90.6687 73.195 90.3782 72.9311 90.0291 72.7732C89.68 72.6152 89.29 72.5713 88.9146 72.6475Z" fill="#F3F3F3"/>
<path d="M83.6735 78.7673L82.7544 79.0701C81.973 80.3544 82.312 81.9966 82.6755 83.4554C82.9053 84.3777 83.4009 85.5124 84.3503 85.4705C85.2742 85.4297 85.6829 84.3094 85.8602 83.4017C86.137 82.4157 86.167 81.3768 85.9476 80.3765C85.8224 79.8813 85.5245 79.447 85.1075 79.152C84.6906 78.857 84.1821 78.7206 83.6735 78.7673V78.7673Z" fill="#F3F3F3"/>
<path d="M69.018 74.4448L69.698 74.7186C69.8575 74.6959 70.0049 74.6212 70.1176 74.5061C70.2303 74.391 70.3018 74.242 70.3212 74.0821C70.3405 73.9222 70.3066 73.7604 70.2247 73.6217C70.1428 73.4831 70.0174 73.3753 69.868 73.3151C69.7186 73.255 69.5536 73.2458 69.3984 73.289C69.2433 73.3321 69.1067 73.4253 69.0099 73.554C68.913 73.6827 68.8613 73.8397 68.8628 74.0008C68.8643 74.1618 68.9189 74.3179 69.018 74.4448Z" fill="#F3F3F3"/>
<path d="M103.3 126.446C102.971 126.453 102.648 126.539 102.358 126.696C102.069 126.854 101.821 127.078 101.636 127.351C101.451 127.624 101.334 127.936 101.294 128.264C101.255 128.591 101.294 128.923 101.409 129.232C102.076 130.67 104.376 130.676 105.398 129.464C105.66 129.119 105.848 128.724 105.949 128.304C106.051 127.883 106.064 127.446 105.988 127.02C105.912 126.595 105.749 126.189 105.508 125.83C105.268 125.47 104.956 125.164 104.591 124.931L103.3 126.446Z" fill="#F3F3F3"/>
<path d="M136.423 160.511C136.156 160.582 135.905 160.706 135.687 160.876C135.468 161.046 135.286 161.257 135.151 161.499C135.016 161.74 134.93 162.006 134.899 162.281C134.869 162.556 134.894 162.834 134.972 163.099L136.881 163.232C137.528 162.908 138.175 162.583 138.821 162.258C138.782 161.984 138.688 161.721 138.546 161.484C138.403 161.247 138.215 161.041 137.991 160.878C137.768 160.715 137.514 160.599 137.244 160.536C136.975 160.472 136.696 160.464 136.423 160.511V160.511Z" fill="#F3F3F3"/>
<path d="M128.663 162.873C128.116 163.261 127.678 163.781 127.389 164.386C127.099 164.99 126.968 165.658 127.009 166.327C127.071 166.994 127.344 167.624 127.788 168.126C128.232 168.628 128.824 168.975 129.478 169.118C130.139 169.222 130.815 169.071 131.368 168.695C131.922 168.32 132.312 167.748 132.46 167.095C132.783 165.12 130.661 163.674 129.898 161.824L128.663 162.873Z" fill="#F3F3F3"/>
<path d="M202.817 149.829C203.018 151.312 201.682 152.611 201.633 154.106C201.574 155.88 203.505 157.261 205.272 157.087C206.149 156.935 206.978 156.581 207.696 156.055C208.413 155.528 208.998 154.842 209.405 154.05L209.443 153.884C208.583 152.911 207.723 151.939 206.862 150.966C205.805 149.771 204.685 148.412 204.727 146.817C204.747 146.031 205.057 145.27 205.039 144.484C204.998 143.918 204.872 143.362 204.665 142.834C204.432 142.139 204.115 141.355 203.42 141.121C202.55 140.827 201.673 141.598 201.258 142.416C200.884 143.172 200.703 144.007 200.729 144.849C200.756 145.691 200.989 146.514 201.409 147.244C201.911 148.098 202.683 148.848 202.817 149.829Z" fill="#F3F3F3"/>
<path d="M194.702 155.046C194.89 155.147 195.098 155.207 195.311 155.221C195.525 155.234 195.739 155.202 195.938 155.125C196.705 154.994 197.442 154.726 198.114 154.334C198.447 154.134 198.722 153.848 198.909 153.507C199.096 153.165 199.188 152.78 199.178 152.391C199.062 151.902 198.803 151.458 198.434 151.116C198.066 150.774 197.604 150.549 197.108 150.469C196.763 150.348 196.394 150.313 196.033 150.368C195.672 150.424 195.33 150.567 195.037 150.785C194.396 151.387 194.472 152.408 194.598 153.278L194.463 153.505C194.342 154.042 194.265 154.71 194.702 155.046Z" fill="#F3F3F3"/>
<path d="M330.145 218.409C329.958 217.946 329.772 217.483 329.586 217.02C329.331 217.649 329.426 218.292 330.145 218.409Z" fill="#F3F3F3"/>
<path d="M441.869 121.049C439.481 118.458 438.019 116.964 436.51 113.752C435.689 111.98 434.443 110.439 432.882 109.267C431.321 108.094 429.493 107.326 427.563 107.032C422.608 106.216 417.545 107.508 412.53 107.249C404.497 106.834 397.254 102.526 389.561 100.175C385.254 98.9684 380.867 98.0637 376.434 97.4678C373.88 97.0638 371.325 96.6598 368.771 96.2558C360.397 94.9315 351.97 93.6033 343.495 93.7791C341.051 93.8299 337.646 93.0952 337.842 90.6583C338.085 87.6317 343.53 88.029 344.577 85.179C345.225 83.416 343.674 81.5649 341.974 80.7677C340.273 79.9705 338.31 79.7308 336.767 78.6605C335.223 77.5902 334.378 75.1091 335.796 73.878C331.864 75.8937 327.933 77.9095 324.001 79.9253C320.732 81.6012 317.08 83.7816 316.502 87.4097C314.532 87.9302 312.809 89.1278 311.634 90.7923C309.422 90.8038 307.684 92.9273 307.319 95.1089C306.954 97.2904 307.617 99.4983 308.273 101.611C307.471 100.074 306.619 98.4787 305.205 97.4759C303.791 96.4732 301.638 96.2822 300.433 97.5279C299.196 98.8062 299.485 100.951 300.36 102.5C301.235 104.048 302.58 105.298 303.405 106.874C305.984 111.795 301.311 118.723 295.783 118.175C296.154 113.094 296.524 108.012 296.895 102.931C297.13 101.367 296.999 99.7712 296.511 98.2676C295.908 96.8129 294.364 95.6182 292.827 95.9617C290.064 96.5794 290.3 100.627 291.45 103.215C292.599 105.802 293.745 109.401 291.399 110.986C289.883 112.009 287.829 111.377 286.193 110.56C284.558 109.743 282.808 108.737 281.02 109.118C279.232 109.5 278.107 112.233 279.687 113.154C277.067 112.699 274.447 112.243 271.827 111.788C271.697 112.559 271.407 113.295 270.976 113.947C270.544 114.599 269.98 115.153 269.321 115.574C268.662 115.995 267.921 116.272 267.148 116.389C266.375 116.506 265.586 116.459 264.831 116.251C264.574 115.185 264.317 114.12 264.06 113.053C263.676 112.947 263.293 112.84 262.91 112.733C264.113 113.068 262.23 118.144 260.542 122.021C258.273 121.755 254.957 121.704 254.578 121.054C252.767 117.94 252.982 110.522 249.834 108.77C248.255 107.891 246.636 107.091 244.977 106.368C244.105 105.953 243.184 105.651 242.236 105.468C240.303 105.164 238.354 105.763 236.488 106.356C234.284 107.056 232.028 107.782 230.203 109.203C228.644 110.555 227.308 112.144 226.244 113.912C222.64 119.246 219.036 124.58 215.432 129.914C214.359 131.338 213.514 132.921 212.929 134.606C212.653 135.444 212.561 136.332 212.659 137.208C212.758 138.085 213.044 138.93 213.499 139.686C213.978 140.427 214.693 140.985 215.528 141.27C216.363 141.555 217.27 141.551 218.102 141.259C219.147 140.807 220.193 139.782 221.228 140.255C222.012 140.614 222.208 141.644 222.125 142.502C221.926 143.342 221.91 144.216 222.079 145.062C222.551 146.398 224.363 146.863 225.656 146.285C226.914 145.599 227.856 144.452 228.284 143.085C229.53 139.89 229.403 136.354 229.713 132.938C230.024 129.522 230.957 125.868 233.65 123.745C234.456 123.109 235.641 122.65 236.47 123.255C236.781 123.538 236.996 123.91 237.085 124.32C237.173 124.731 237.132 125.158 236.966 125.544C236.619 126.307 236.167 127.018 235.622 127.655C234.702 128.95 234.058 130.42 233.731 131.974C233.403 133.528 233.399 135.133 233.718 136.689L234.269 137.029C236.369 136.485 239.179 137.46 241.966 138.395C239.943 138.997 238.161 140.222 236.875 141.897C233.653 146.418 231.321 150.697 224.947 150.643C223.435 150.631 221.935 150.332 220.423 150.328C218.897 150.234 217.393 150.735 216.228 151.725C215.082 152.848 214.727 154.557 213.747 155.827C212.457 157.497 210.301 158.176 208.333 158.934C206.894 159.489 205.378 160.236 204.716 161.629C204.301 162.772 204.205 164.006 204.439 165.198C204.661 167.308 205.053 169.707 206.843 170.846C207.512 171.195 208.244 171.407 208.996 171.471C209.748 171.535 210.505 171.448 211.223 171.216C213.084 170.763 214.905 169.911 216.816 170.038C219.817 170.238 222.289 173.119 222.319 176.127C222.334 177.65 221.89 179.396 222.899 180.536C223.847 181.607 225.728 181.417 226.711 180.376C227.167 179.823 227.482 179.166 227.626 178.464C227.77 177.761 227.74 177.033 227.538 176.345C227.121 174.973 226.48 173.681 225.64 172.519C226.638 172.26 227.696 172.355 228.633 172.788C229.569 173.221 230.327 173.966 230.777 174.894C231.444 176.375 231.228 178.084 231.441 179.694C231.653 181.305 232.634 183.094 234.255 183.187C234.785 183.202 235.304 183.031 235.721 182.703C236.138 182.376 236.428 181.913 236.539 181.394C236.556 180.577 236.512 179.76 236.406 178.949C236.462 178.151 236.82 177.405 237.408 176.863C237.996 176.321 238.769 176.024 239.569 176.034C239.076 176.946 238.915 178.001 239.115 179.018C239.315 180.035 239.862 180.951 240.663 181.608C241.897 182.563 243.528 182.777 245.065 183.044C246.602 183.31 248.242 183.732 249.234 184.937C250.887 186.943 248.865 187.846 248.55 189.545C248.163 191.63 249.905 194.71 250.574 196.705C253.649 201.007 256.724 205.309 259.798 209.61C260.484 210.656 261.294 211.616 262.209 212.469C265.244 215.076 270.248 214.818 273.158 212.073C274.57 210.645 275.486 208.803 275.773 206.816C276.06 204.829 275.702 202.802 274.752 201.033C272.954 197.759 269.39 195.731 267.63 192.435C270.559 194.861 274.155 196.34 277.943 196.677C284.645 198.039 291.012 200.71 296.681 204.536C296.947 210.458 299.219 216.114 303.124 220.575C303.826 215.52 306.182 210.841 309.825 207.267C312.193 204.957 315.43 203.094 318.68 203.716C321.929 204.337 324.395 208.481 322.429 211.143C324.076 211.265 325.723 211.388 327.37 211.51C328.109 213.347 328.847 215.183 329.586 217.02C329.718 216.634 329.969 216.3 330.304 216.068C330.639 215.835 331.04 215.716 331.447 215.728C332.989 215.961 334.071 217.396 335.537 217.925C338.302 218.924 341.257 216.158 341.615 213.24C341.972 210.322 340.584 207.505 339.236 204.893C342.215 205.445 345.289 205.116 348.084 203.947C350.879 202.777 353.272 200.819 354.971 198.31C356.669 195.802 357.6 192.852 357.648 189.823C357.697 186.794 356.861 183.816 355.243 181.255C358.448 177.888 362.22 175.111 366.387 173.05C370.242 171.145 374.46 169.837 377.83 167.165C381.2 164.492 383.563 159.852 381.942 155.868C380.797 153.054 377.925 151.144 377.066 148.229C375.822 144.011 379.601 139.647 383.871 138.593C388.141 137.539 392.6 138.835 396.806 140.12C396.16 135.792 401.176 131.734 405.273 133.271C406.989 132.576 408.705 131.881 410.421 131.186C408.432 135.572 404.122 138.363 400.953 141.989C397.783 145.615 395.896 151.519 399.206 155.016C403.952 150.715 408.697 146.413 413.443 142.112C418.407 137.612 423.371 133.113 428.334 128.613C428.097 127.917 427.86 127.221 427.623 126.524C432.32 124.74 437.378 123.265 441.869 121.049Z" fill="#F3F3F3"/>
<path d="M195.383 178.942C195.191 179.218 195.089 179.547 195.091 179.883C195.093 180.219 195.198 180.547 195.392 180.821C195.647 181.037 195.97 181.158 196.304 181.163C196.638 181.167 196.964 181.055 197.225 180.845C197.734 180.41 198.132 179.859 198.385 179.239C198.632 179.716 199.019 180.105 199.495 180.354C199.97 180.603 200.511 180.7 201.043 180.631C202.107 180.471 203.114 180.05 203.976 179.408C204.66 179.007 205.264 178.483 205.757 177.863C206.001 177.55 206.168 177.185 206.246 176.796C206.324 176.407 206.31 176.006 206.204 175.623C205.949 175.037 205.551 174.524 205.047 174.129C203.791 172.969 202.536 171.809 201.28 170.649L200.855 170.522C200.633 170.286 200.366 170.097 200.07 169.967C199.774 169.838 199.455 169.769 199.131 169.765C198.808 169.762 198.487 169.824 198.188 169.947C197.89 170.071 197.619 170.254 197.392 170.485C196.613 171.358 196.609 172.662 196.728 173.826C196.848 174.991 197.033 176.231 196.515 177.281C196.217 177.882 195.714 178.359 195.383 178.942Z" fill="#F3F3F3"/>
<path d="M268.238 218.567C263.358 217.48 258.891 215.02 255.365 211.475C251.839 207.931 249.402 203.451 248.34 198.566C247.878 196.26 247.668 193.741 246.134 191.958C244.649 190.233 242.224 189.61 239.947 189.61C237.671 189.61 235.427 190.134 233.155 190.276C229.183 190.524 224.974 189.474 222.133 186.686C220.788 185.366 219.77 183.689 218.199 182.648C216.087 181.249 213.288 181.25 210.882 182.043C208.203 182.926 206.058 185.343 203.128 185.01C200.08 184.664 196.549 183.587 195.354 187.6C195.01 188.755 195.127 190.022 194.692 191.146C194.02 192.879 192.238 193.855 190.828 195.065C187.989 197.503 186.479 201.206 185.971 204.914C185.462 208.622 185.856 212.387 186.25 216.109C186.462 218.116 186.741 220.277 188.12 221.751C190.042 223.806 193.267 223.727 196.071 223.495C199.329 223.226 202.587 222.957 205.844 222.688C207.601 222.543 209.601 222.481 210.852 223.723C211.601 224.467 211.918 225.544 212.577 226.369C213.168 227.071 213.98 227.552 214.88 227.734C215.78 227.915 216.715 227.787 217.532 227.368C216.871 228.549 216.512 229.874 216.485 231.226C216.458 232.578 216.765 233.916 217.379 235.122C217.993 236.327 218.894 237.363 220.003 238.137C221.113 238.91 222.396 239.399 223.739 239.559L223.99 239.717C221.904 243.289 219.74 247.3 220.605 251.344C221.346 254.813 224.218 257.593 224.688 261.108C225.119 264.334 223.436 267.632 224.181 270.8C224.935 274.008 228.174 276.244 231.46 276.483C234.746 276.721 237.975 275.264 240.521 273.171C243.066 271.079 245.034 268.384 246.974 265.72C248.171 264.076 249.399 262.364 249.811 260.371C250.248 258.251 249.741 255.901 250.772 253.997C251.961 251.801 254.783 250.979 256.208 248.928C258.053 246.273 256.966 242.657 257.373 239.449C258.383 231.512 268.467 226.565 268.238 218.567Z" fill="#F3F3F3"/>
<path d="M266.782 245.665C266.506 246.904 265.345 247.72 264.24 248.344C263.134 248.968 261.918 249.597 261.355 250.735C260.778 251.901 261.041 253.289 261.343 254.554C261.971 257.186 262.711 259.787 263.562 262.358C265.212 259.24 266.653 256.016 267.874 252.706C268.392 251.474 268.711 250.168 268.821 248.836C268.871 248.17 268.782 247.5 268.557 246.87C268.333 246.24 267.98 245.664 267.519 245.179L266.782 245.665Z" fill="#F3F3F3"/>
<path d="M334.643 231.86C333.257 230.26 331.871 228.661 330.486 227.061C329.538 225.967 328.458 224.798 327.022 224.616L326.431 224.994C327.632 227.855 328.834 230.716 330.035 233.577C330.46 234.883 331.209 236.061 332.211 237C333.287 237.845 335.031 238.008 335.928 236.975C336.217 236.588 336.399 236.131 336.456 235.652C336.514 235.172 336.444 234.685 336.253 234.241C335.862 233.358 335.317 232.552 334.643 231.86Z" fill="#F3F3F3"/>
<path d="M348.069 234.924C348.593 234.742 349.073 234.452 349.479 234.074C349.884 233.696 350.206 233.238 350.424 232.728C350.854 231.707 351.137 230.63 351.267 229.53C351.504 228.098 351.741 226.665 351.977 225.233L351.668 225.153C351.367 225.009 351.024 224.978 350.702 225.068C350.38 225.157 350.102 225.36 349.918 225.638C349.569 226.207 349.305 226.824 349.135 227.469C349.047 227.792 348.887 228.09 348.668 228.342C348.449 228.594 348.176 228.793 347.868 228.925C346.756 229.261 345.703 228.082 344.542 228.128C344.073 228.188 343.638 228.404 343.308 228.743C342.978 229.082 342.772 229.523 342.725 229.993C342.658 230.943 342.927 231.886 343.485 232.657C344.475 234.194 346.312 235.429 348.069 234.924Z" fill="#F3F3F3"/>
<path d="M355.731 237.639L358.924 229.228C357.63 230.167 356.639 231.463 356.072 232.957C355.504 234.451 355.386 236.079 355.731 237.639V237.639Z" fill="#F3F3F3"/>
<path d="M372.028 230.859L371.382 230.886C371.093 231.457 370.94 232.087 370.934 232.726C370.928 233.366 371.069 233.999 371.347 234.575C371.913 235.724 372.738 236.726 373.756 237.504C375.333 238.806 377.134 239.812 379.07 240.472C381.91 241.3 384.846 241.752 387.803 241.817C389.494 241.927 391.184 242.038 392.875 242.149C393.68 242.201 394.722 242.099 394.946 241.324C395.13 240.684 394.585 240.082 394.076 239.652C389.603 235.888 384.181 233.426 378.403 232.538C376.211 232.204 373.886 232.067 372.028 230.859Z" fill="#F3F3F3"/>
<path d="M390.072 253.182C388.856 252.002 387.641 250.823 386.425 249.644C385.243 248.498 383.471 247.283 382.116 248.219C381.337 248.757 381.097 249.807 380.437 250.485C380.035 250.845 379.549 251.1 379.024 251.225C378.499 251.35 377.951 251.342 377.43 251.201C376.391 250.909 375.41 250.444 374.526 249.825L371.51 247.953C370.469 247.307 369.428 246.661 368.387 246.015L366.037 248.298C366.139 247.174 364.641 246.444 363.604 246.889C363.111 247.165 362.687 247.549 362.363 248.012C362.039 248.475 361.824 249.006 361.733 249.564C361.56 250.679 361.259 251.77 360.835 252.816C359.642 255.1 356.746 255.776 354.198 256.159C351.65 256.542 348.764 257.08 347.4 259.266C346.264 261.087 346.605 263.425 346.984 265.537L348.42 273.529C348.488 274.497 348.876 275.415 349.524 276.138C350.785 277.251 352.739 276.575 354.279 275.895C357.497 274.347 360.951 273.346 364.498 272.933C368.077 272.533 371.678 273.455 374.623 275.527C376.449 276.917 377.842 278.842 379.776 280.077C381.109 280.879 382.607 281.366 384.156 281.501C385.705 281.636 387.265 281.416 388.716 280.857C391.626 279.699 394.033 277.552 395.516 274.793C396.832 272.361 397.493 269.628 397.433 266.863C397.373 264.098 396.594 261.396 395.173 259.024C393.722 256.872 392.008 254.91 390.072 253.182Z" fill="#F3F3F3"/>
<path d="M386.488 285.74C386.196 286.094 386.025 286.532 386.001 286.99C385.976 287.449 386.099 287.903 386.351 288.286C386.881 289.046 387.689 289.565 388.599 289.733C389.501 289.895 390.42 289.937 391.332 289.859L391.36 289.177C391.117 287.98 390.565 286.868 389.759 285.95C388.878 285.113 387.322 284.856 386.488 285.74Z" fill="#F3F3F3"/>
<path d="M417.795 286.469L417.359 286.309C416.322 287.873 415.284 289.437 414.247 291C413.689 291.842 413.106 292.852 413.447 293.803C413.85 294.928 415.34 295.258 416.497 294.96C417.381 294.72 418.177 294.234 418.793 293.557C419.41 292.88 419.821 292.042 419.977 291.14C420.105 290.234 419.967 289.31 419.579 288.481C419.192 287.651 418.572 286.952 417.795 286.469V286.469Z" fill="#F3F3F3"/>
<path d="M425.704 281.506L422.839 279.229C422.801 280.285 422.763 281.342 422.725 282.398L422.617 282.4C423.278 282.979 423.901 283.599 424.484 284.256C425.154 284.826 426.279 285.087 426.852 284.419C427.024 284.18 427.121 283.896 427.132 283.602C427.143 283.308 427.067 283.017 426.914 282.766C426.599 282.269 426.187 281.841 425.704 281.506Z" fill="#F3F3F3"/>
<path d="M373.962 182.442C372.761 182.404 371.431 182.331 370.499 183.092C370.193 183.366 369.924 183.679 369.7 184.024L369.372 184.483C368.88 185.127 368.452 185.816 368.092 186.541C367.904 186.881 367.792 187.257 367.762 187.644C367.732 188.032 367.785 188.421 367.918 188.786C367.995 188.96 368.11 189.115 368.253 189.241C368.397 189.366 368.566 189.458 368.749 189.511C368.933 189.563 369.125 189.575 369.313 189.545C369.502 189.515 369.681 189.444 369.839 189.337C370.352 188.861 370.232 187.998 370.621 187.415C370.792 187.196 371.011 187.019 371.262 186.899C371.513 186.779 371.789 186.719 372.067 186.724C372.622 186.738 373.174 186.8 373.718 186.91C375.224 187.117 376.759 186.888 378.139 186.25C379.52 185.613 380.689 184.593 381.509 183.313C382.329 182.032 382.765 180.543 382.766 179.022C382.767 177.502 382.333 176.012 381.515 174.73L381.418 174.435C380.586 174.403 379.769 174.664 379.11 175.173C378.45 175.681 377.99 176.405 377.809 177.218C377.54 178.618 378.11 180.245 377.261 181.39C376.545 182.356 375.164 182.48 373.962 182.442Z" fill="#F3F3F3"/>
<path d="M384.72 167.596L384.537 167.58C383.462 167.777 382.43 168.161 381.489 168.716C381.18 168.859 380.934 169.109 380.795 169.42C380.754 169.585 380.755 169.758 380.797 169.922C380.839 170.087 380.922 170.238 381.037 170.363C381.271 170.61 381.544 170.815 381.845 170.971C382.295 171.271 382.791 171.493 383.314 171.628C383.576 171.693 383.851 171.692 384.113 171.624C384.374 171.556 384.615 171.425 384.813 171.241C384.999 170.985 385.127 170.692 385.188 170.382C385.249 170.072 385.241 169.752 385.165 169.446C385.079 168.816 384.93 168.196 384.72 167.596Z" fill="#F3F3F3"/>
<path d="M366.197 182.799C366.484 182.338 366.688 181.831 366.8 181.3C366.912 180.888 367.024 180.476 367.136 180.063L365.938 179.336C365.366 179.634 364.838 180.01 364.37 180.454C364.137 180.677 363.953 180.946 363.829 181.245C363.705 181.543 363.645 181.863 363.651 182.186C363.667 182.509 363.793 182.816 364.006 183.059C364.22 183.301 364.509 183.464 364.827 183.521C365.098 183.53 365.367 183.467 365.607 183.341C365.847 183.214 366.051 183.027 366.197 182.799V182.799Z" fill="#F3F3F3"/>
<path d="M235.697 71.3916C235.223 71.6869 235.357 72.4007 235.549 72.9249C235.77 73.5266 235.99 74.1284 236.211 74.7301L236.52 73.562C236.791 73.109 236.91 72.5813 236.861 72.0556C236.754 71.5421 236.142 71.1142 235.697 71.3916Z" fill="#F3F3F3"/>
<g filter="url(#filter0_b_139_202)">
<path d="M532.769 455H343.231C338.662 454.995 334.283 453.328 331.052 450.365C327.822 447.402 326.005 443.384 326 439.194V314.806C326.005 310.616 327.822 306.598 331.053 303.635C334.283 300.672 338.662 299.005 343.231 299H532.769C537.338 299.005 541.717 300.672 544.947 303.635C548.178 306.598 549.995 310.616 550 314.806V439.194C549.995 443.384 548.178 447.402 544.948 450.365C541.717 453.328 537.338 454.995 532.769 455V455Z" fill="white" fill-opacity="0.25"/>
</g>
<path d="M532.769 455H343.231C338.662 454.995 334.283 453.328 331.052 450.365C327.822 447.402 326.005 443.384 326 439.194V314.806C326.005 310.616 327.822 306.598 331.053 303.635C334.283 300.672 338.662 299.005 343.231 299H532.769C537.338 299.005 541.717 300.672 544.947 303.635C548.178 306.598 549.995 310.616 550 314.806V439.194C549.995 443.384 548.178 447.402 544.948 450.365C541.717 453.328 537.338 454.995 532.769 455V455ZM343.231 300.374C339.06 300.379 335.061 301.901 332.111 304.606C329.162 307.312 327.503 310.98 327.498 314.806V439.194C327.503 443.02 329.162 446.688 332.111 449.394C335.061 452.099 339.06 453.621 343.231 453.626H532.769C536.94 453.621 540.939 452.099 543.888 449.394C546.838 446.688 548.497 443.02 548.502 439.194V314.806C548.497 310.98 546.838 307.312 543.889 304.606C540.939 301.901 536.94 300.379 532.769 300.374H343.231Z" fill="#3F3D56"/>
<path opacity="0.1" d="M523.595 341.253C518.689 339.338 513.4 344.141 512.25 349.281C511.101 354.42 512.572 359.735 512.896 364.992C513.219 370.248 511.842 376.352 507.152 378.749C501.759 381.504 495.433 377.922 489.402 377.376C486.391 377.137 483.369 377.665 480.618 378.912C477.867 380.158 475.477 382.081 473.671 384.502C468.697 391.326 468.95 401.235 463.064 407.29C457.95 412.551 449.616 413.236 442.461 411.609C435.307 409.982 428.73 406.448 421.695 404.364C414.66 402.281 406.518 401.846 400.489 406.028C394.195 410.393 391.395 418.951 384.486 422.257C379.6 424.595 373.818 423.704 368.59 422.288C363.362 420.872 358.091 418.962 352.694 419.416C347.297 419.871 341.67 423.595 341.243 428.994L526.471 428.477C527.312 404.028 528.154 379.579 528.995 355.131C529.178 349.82 528.545 343.186 523.595 341.253Z" fill="#20EEB0"/>
<path d="M340.357 428.392C340.083 428.392 339.821 428.283 339.628 428.09C339.435 427.897 339.326 427.635 339.326 427.361C339.326 427.088 339.435 426.826 339.628 426.633C339.821 426.439 340.083 426.331 340.357 426.331C387.978 426.331 433.393 416.796 468.237 399.482C500.91 383.247 521.732 361.231 525.361 339.08C525.382 338.946 525.43 338.818 525.501 338.702C525.572 338.587 525.665 338.487 525.775 338.408C525.885 338.328 526.009 338.272 526.141 338.24C526.273 338.209 526.41 338.204 526.543 338.226C526.677 338.248 526.805 338.296 526.92 338.367C527.036 338.438 527.136 338.531 527.215 338.641C527.294 338.751 527.351 338.876 527.382 339.008C527.412 339.14 527.417 339.276 527.395 339.41L527.395 339.413C525.51 350.92 519.39 362.207 509.207 372.962C499.164 383.569 485.688 393.113 469.154 401.328C434.031 418.781 388.29 428.392 340.357 428.392Z" fill="#31F9C9"/>
<path d="M535.97 428.6H339.127V331.35H340.158V427.57H535.97V428.6Z" fill="#1E1E1E"/>
<rect x="362" y="435" width="6" height="20" rx="3" transform="rotate(90 362 435)" fill="#95ABBC"/>
<rect x="391" y="435" width="6" height="20" rx="3" transform="rotate(90 391 435)" fill="#95ABBC"/>
<rect x="420" y="435" width="6" height="20" rx="3" transform="rotate(90 420 435)" fill="#95ABBC"/>
<rect x="449" y="435" width="6" height="20" rx="3" transform="rotate(90 449 435)" fill="#95ABBC"/>
<rect x="478" y="435" width="6" height="20" rx="3" transform="rotate(90 478 435)" fill="#95ABBC"/>
<rect x="507" y="435" width="6" height="20" rx="3" transform="rotate(90 507 435)" fill="#95ABBC"/>
<rect x="536" y="435" width="6" height="20" rx="3" transform="rotate(90 536 435)" fill="#95ABBC"/>
<rect x="412" y="312" width="8.00001" height="72" rx="4" transform="rotate(90 412 312)" fill="#95ABBC"/>
<g filter="url(#filter1_b_139_202)">
<path d="M534.785 179.786H334.424C329.595 179.781 324.965 177.86 321.55 174.445C318.136 171.03 316.215 166.4 316.209 161.57V18.2162C316.215 13.3867 318.136 8.75648 321.55 5.34147C324.965 1.92645 329.595 0.00549039 334.424 -3.8147e-06H534.785C539.615 0.0054883 544.244 1.92645 547.659 5.34147C551.074 8.75648 552.995 13.3867 553 18.2162V161.57C552.995 166.4 551.074 171.03 547.659 174.445C544.244 177.86 539.615 179.781 534.785 179.786V179.786Z" fill="white" fill-opacity="0.25"/>
</g>
<path d="M534.785 179.786H334.424C329.595 179.781 324.965 177.86 321.55 174.445C318.136 171.03 316.215 166.4 316.209 161.57V18.2162C316.215 13.3867 318.136 8.75648 321.55 5.34147C324.965 1.92645 329.595 0.00549039 334.424 -3.8147e-06H534.785C539.615 0.0054883 544.244 1.92645 547.659 5.34147C551.074 8.75648 552.995 13.3867 553 18.2162V161.57C552.995 166.4 551.074 171.03 547.659 174.445C544.244 177.86 539.615 179.781 534.785 179.786V179.786ZM334.424 1.58402C330.015 1.58896 325.788 3.34286 322.67 6.46093C319.552 9.57901 317.798 13.8066 317.793 18.2162V161.57C317.798 165.98 319.552 170.207 322.67 173.325C325.788 176.443 330.015 178.197 334.424 178.202H534.785C539.195 178.197 543.422 176.443 546.54 173.325C549.657 170.207 551.411 165.98 551.416 161.57V18.2162C551.411 13.8066 549.658 9.57901 546.54 6.46093C543.422 3.34286 539.195 1.58896 534.785 1.58402H334.424Z" fill="#3F3D56"/>
<path d="M388.937 21.827H357.26C356.419 21.827 355.614 21.4933 355.02 20.8991C354.426 20.305 354.092 19.4992 354.092 18.659C354.092 17.8188 354.426 17.013 355.02 16.4189C355.614 15.8247 356.419 15.491 357.26 15.491H388.937C389.777 15.491 390.583 15.8247 391.177 16.4189C391.771 17.013 392.105 17.8188 392.105 18.659C392.105 19.4992 391.771 20.305 391.177 20.8991C390.583 21.4933 389.777 21.827 388.937 21.827Z" fill="#CCCCCC"/>
<path d="M457.836 93.1079H357.26C356.419 93.1079 355.614 92.7741 355.02 92.18C354.426 91.5859 354.092 90.7801 354.092 89.9398C354.092 89.0996 354.426 88.2938 355.02 87.6997C355.614 87.1056 356.419 86.7718 357.26 86.7718H457.836C458.676 86.7718 459.482 87.1056 460.076 87.6997C460.67 88.2938 461.004 89.0996 461.004 89.9398C461.004 90.7801 460.67 91.5859 460.076 92.18C459.482 92.7741 458.676 93.1079 457.836 93.1079Z" fill="#CCCCCC"/>
<path d="M375.075 73.1081C386.805 73.1081 396.314 63.5982 396.314 51.8673C396.314 40.1363 386.805 30.6264 375.075 30.6264C363.345 30.6264 353.836 40.1363 353.836 51.8673C353.836 63.5982 363.345 73.1081 375.075 73.1081Z" fill="#31F9C9"/>
<path d="M358.843 153.608H354.092V155.192H358.843V153.608Z" fill="#3F3D56"/>
<path d="M498.358 155.192H488.393V153.608H498.358V155.192ZM478.428 155.192H468.462V153.608H478.428V155.192ZM458.497 155.192H448.531V153.608H458.497V155.192ZM438.566 155.192H428.601V153.608H438.566L438.566 155.192ZM418.636 155.192H408.67V153.608H418.636V155.192ZM398.705 155.192H388.739V153.608H398.705L398.705 155.192ZM378.774 155.192H368.809V153.608H378.774V155.192Z" fill="#3F3D56"/>
<path d="M513.076 153.608H508.324V155.192H513.076V153.608Z" fill="#3F3D56"/>
<path d="M434.742 125.58H430.782V152.509H434.742V125.58Z" fill="#31F9C9"/>
<path d="M475.131 125.58H471.171V152.509H475.131V125.58Z" fill="#31F9C9"/>
<path d="M494.929 140.628H490.97V152.509H494.929V140.628Z" fill="#31F9C9"/>
<path d="M454.54 113.7H450.581V152.509H454.54V113.7Z" fill="#31F9C9"/>
<path d="M71.2404 179.437C73.8647 179.437 75.9921 177.309 75.9921 174.685C75.9921 172.06 73.8647 169.933 71.2404 169.933C68.6162 169.933 66.4888 172.06 66.4888 174.685C66.4888 177.309 68.6162 179.437 71.2404 179.437Z" fill="#31F9C9"/>
<path d="M83.9118 156.469C86.5361 156.469 88.6635 154.341 88.6635 151.717C88.6635 149.092 86.5361 146.965 83.9118 146.965C81.2875 146.965 79.1602 149.092 79.1602 151.717C79.1602 154.341 81.2875 156.469 83.9118 156.469Z" fill="#31F9C9"/>
<path d="M223.293 138.252C225.917 138.252 228.045 136.125 228.045 133.5C228.045 130.876 225.917 128.748 223.293 128.748C220.669 128.748 218.542 130.876 218.542 133.5C218.542 136.125 220.669 138.252 223.293 138.252Z" fill="#31F9C9"/>
<path d="M114.223 473.199L121.39 473.199L124.799 445.552L114.221 445.553L114.223 473.199Z" fill="#FFB6B6"/>
<path d="M113.97 480.676L136.009 480.676V480.397C136.009 478.122 135.105 475.94 133.497 474.331C131.888 472.722 129.706 471.818 127.431 471.818H127.431L123.405 468.764L115.894 471.818L113.97 471.819L113.97 480.676Z" fill="#2F2E41"/>
<path d="M168.075 473.199L175.242 473.199L178.651 445.552L168.073 445.553L168.075 473.199Z" fill="#FFB6B6"/>
<path d="M167.822 480.676L189.861 480.676V480.397C189.861 478.122 188.957 475.94 187.349 474.331C185.74 472.722 183.558 471.818 181.283 471.818H181.283L177.257 468.764L169.746 471.818L167.822 471.819L167.822 480.676Z" fill="#2F2E41"/>
<path d="M113.944 248.3L126.663 246.478C130.965 253.671 132.493 272.818 132.493 272.818L144.941 302.407C145.765 302.967 146.428 303.734 146.861 304.631C147.295 305.529 147.484 306.524 147.411 307.518C147.337 308.512 147.003 309.469 146.443 310.293C145.882 311.117 145.114 311.778 144.216 312.211C143.318 312.643 142.322 312.832 141.328 312.757C140.335 312.682 139.378 312.347 138.555 311.785C137.732 311.223 137.072 310.454 136.64 309.556C136.209 308.658 136.022 307.662 136.097 306.668L115.66 272.228L113.944 248.3Z" fill="#FFB6B6"/>
<path d="M120.838 212.985C118.869 213.29 116.992 214.026 115.339 215.138C113.687 216.251 112.3 217.715 111.278 219.425C110.255 221.135 109.622 223.049 109.424 225.031C109.225 227.014 109.465 229.015 110.128 230.894L112.827 238.545C112.827 238.545 109.427 261.583 115.031 268.085L132.225 266.529C132.225 266.529 129.081 254.906 131.495 249.283C132.973 245.839 132.89 233.944 131.434 224.268C130.322 216.879 128.221 211.842 120.838 212.985Z" fill="#3F3D56"/>
<path d="M180.133 282.398C180.133 282.398 193.386 295.324 190.556 298.31C187.725 301.295 181.252 305.477 187.26 306.158C193.269 306.839 195.762 308.316 190.556 309.558C185.35 310.8 186.154 313.988 186.154 313.988C186.154 313.988 193.992 351.303 188.052 375.855C188.052 375.855 184.747 442.916 182.672 448.139C180.598 453.361 179.806 450.193 180.598 453.361C181.39 456.529 182.974 450.985 181.39 456.529C180.526 459.425 179.841 462.372 179.341 465.352L163.849 462.976C163.849 462.976 161.354 455.114 163.849 453.049C166.343 450.985 168.58 452.257 165.878 447.661C163.175 443.065 162.383 449.401 163.175 443.065C163.967 436.729 160.661 402.461 165.878 384.35L156.237 333.533L140.932 386.151C140.932 386.151 132.813 450.415 130.175 452.68C127.538 454.945 123.578 450.985 127.538 454.945C131.497 458.905 131.428 458.224 131.497 458.905C132.235 466.17 109.562 458.224 109.562 458.224C109.688 456.378 109.688 454.526 109.562 452.68C109.323 450.985 112.177 450.443 109.562 448.734C106.947 447.025 110.838 448.72 110.838 448.72C110.838 448.72 116.685 401.31 121.133 386.943L126.281 316.98C126.281 316.98 126.607 318.376 126.281 314.984C125.954 311.591 123.578 313.967 125.954 311.591C128.33 309.215 129.914 308.005 128.33 306.234C126.746 304.463 122.377 300.881 124.957 298.712C127.538 296.543 132.616 282.398 132.616 282.398L182.113 282.794" fill="#2F2E41"/>
<path d="M161.523 203.852L152.598 193.802L138.496 195.369L129.468 208.005C124.662 209.11 120.462 212.015 117.733 216.122C115.003 220.229 113.952 225.227 114.794 230.086C118.298 250.262 130.205 269.831 126.273 279.786C120.305 294.898 119.941 301.061 134.227 298.942C148.513 296.824 196.373 291.939 187.094 282.66C177.815 273.38 175.777 257.873 175.777 257.873L175.405 222.395C175.8 220.255 175.747 218.057 175.251 215.939C174.754 213.82 173.825 211.827 172.521 210.086C171.217 208.344 169.567 206.891 167.674 205.818C165.781 204.745 163.687 204.076 161.523 203.852V203.852Z" fill="#3F3D56"/>
<path d="M159.084 242.756L171.804 240.934C176.105 248.127 177.634 267.274 177.634 267.274L190.082 296.863C190.906 297.423 191.568 298.19 192.002 299.087C192.436 299.985 192.625 300.98 192.552 301.974C192.478 302.968 192.144 303.925 191.583 304.749C191.022 305.573 190.254 306.234 189.356 306.667C188.459 307.099 187.463 307.288 186.469 307.213C185.475 307.138 184.519 306.803 183.696 306.241C182.873 305.679 182.212 304.91 181.781 304.012C181.349 303.114 181.162 302.117 181.238 301.124L160.8 266.684L159.084 242.756Z" fill="#FFB6B6"/>
<path d="M165.978 207.441C164.01 207.746 162.132 208.481 160.48 209.594C158.828 210.707 157.441 212.171 156.418 213.881C155.396 215.591 154.763 217.505 154.564 219.487C154.365 221.47 154.606 223.471 155.269 225.35L157.968 233.001C157.968 233.001 154.568 256.038 160.171 262.541L177.365 260.985C177.365 260.985 174.222 249.362 176.635 243.739C178.113 240.295 178.031 228.4 176.575 218.724C175.463 211.335 173.362 206.298 165.978 207.441Z" fill="#3F3D56"/>
<path d="M141.669 192.936C151.083 192.936 158.714 185.304 158.714 175.89C158.714 166.475 151.083 158.843 141.669 158.843C132.255 158.843 124.624 166.475 124.624 175.89C124.624 185.304 132.255 192.936 141.669 192.936Z" fill="#FFB6B6"/>
<path d="M138.534 192.577C143.281 191.387 143.443 190.03 148.19 188.841C149.702 188.462 151.453 187.866 151.901 186.373C152.008 185.827 151.986 185.264 151.838 184.728C151.689 184.192 151.419 183.697 151.047 183.284C150.299 182.464 149.599 181.603 148.949 180.704C148.518 179.982 148.27 179.166 148.226 178.326C148.181 177.487 148.342 176.649 148.694 175.885C149.045 175.122 149.578 174.456 150.245 173.944C150.912 173.432 151.694 173.091 152.522 172.949C153.991 172.698 155.505 173.087 156.983 172.899C159.01 172.64 161.991 165.119 160.692 163.542C159.427 162.007 157.351 161.091 156.653 159.229C156.197 158.01 156.447 156.648 156.243 155.363C155.942 153.458 152.087 158.733 152.6 156.874C153.859 152.312 132.561 151.594 130.344 157.446C129.515 159.633 127.272 159.98 125.546 161.559C124.415 162.594 121.71 165.905 121.318 167.689C120.993 169.494 121.056 171.346 121.501 173.125C123.27 181.462 126.194 188.85 133.975 192.323" fill="#2F2E41"/>
</g>
<g filter="url(#filter2_b_139_202)">
<rect x="442" y="165" width="261.959" height="165.335" rx="14.1323" fill="white" fill-opacity="0.2"/>
<rect x="668" y="232.868" width="8.00001" height="72" rx="4" transform="rotate(90 668 232.868)" fill="#95ABBC"/>
<rect x="664" y="255" width="8.00001" height="68" rx="4" transform="rotate(90 664 255)" fill="#95ABBC"/>
<rect x="672" y="277.132" width="8.00001" height="76" rx="4" transform="rotate(90 672 277.132)" fill="#95ABBC"/>
<g clip-path="url(#clip1_139_202)">
<path d="M556.646 258.63C556.646 280.681 538.814 298.532 516.848 298.532C494.882 298.532 477.049 280.681 477.049 258.63C477.049 236.578 494.882 218.728 516.848 218.728C538.814 218.728 556.646 236.578 556.646 258.63Z" stroke="#0A2640" stroke-width="13.3928"/>
<mask id="mask0_139_202" style="mask-type:alpha" maskUnits="userSpaceOnUse" x="442" y="195" width="74" height="121">
<path d="M515.364 254.333L497.228 195.176L442.325 264.908L471.508 315.803L515.364 254.333Z" fill="#C4C4C4"/>
</mask>
<g mask="url(#mask0_139_202)">
<path d="M556.647 258.629C556.647 280.68 538.814 298.531 516.848 298.531C494.882 298.531 477.05 280.68 477.05 258.629C477.05 236.578 494.882 218.727 516.848 218.727C538.814 218.727 556.647 236.578 556.647 258.629Z" stroke="#0DBBFC" stroke-width="13.3928"/>
</g>
<mask id="mask1_139_202" style="mask-type:alpha" maskUnits="userSpaceOnUse" x="491" y="190" width="91" height="85">
<path d="M521.503 259.517L581.5 274.208L549.794 191.248L491.231 190.295L521.503 259.517Z" fill="#C4C4C4"/>
</mask>
<g mask="url(#mask1_139_202)">
<path d="M496.448 292.87C477.556 281.584 471.356 257.098 482.602 238.177C493.849 219.255 518.281 213.067 537.173 224.353C556.066 235.638 562.266 260.125 551.019 279.046C539.773 297.967 515.341 304.155 496.448 292.87Z" stroke="#69E6A6" stroke-width="13.3928"/>
</g>
</g>
<rect x="442.5" y="165.5" width="260.959" height="164.335" rx="13.6323" stroke="black"/>
</g>
<defs>
<filter id="filter0_b_139_202" x="322" y="295" width="232" height="164" filterUnits="userSpaceOnUse" color-interpolation-filters="sRGB">
<feFlood flood-opacity="0" result="BackgroundImageFix"/>
<feGaussianBlur in="BackgroundImage" stdDeviation="2"/>
<feComposite in2="SourceAlpha" operator="in" result="effect1_backgroundBlur_139_202"/>
<feBlend mode="normal" in="SourceGraphic" in2="effect1_backgroundBlur_139_202" result="shape"/>
</filter>
<filter id="filter1_b_139_202" x="312.209" y="-4" width="244.791" height="187.786" filterUnits="userSpaceOnUse" color-interpolation-filters="sRGB">
<feFlood flood-opacity="0" result="BackgroundImageFix"/>
<feGaussianBlur in="BackgroundImage" stdDeviation="2"/>
<feComposite in2="SourceAlpha" operator="in" result="effect1_backgroundBlur_139_202"/>
<feBlend mode="normal" in="SourceGraphic" in2="effect1_backgroundBlur_139_202" result="shape"/>
</filter>
<filter id="filter2_b_139_202" x="308.873" y="31.8731" width="528.213" height="431.589" filterUnits="userSpaceOnUse" color-interpolation-filters="sRGB">
<feFlood flood-opacity="0" result="BackgroundImageFix"/>
<feGaussianBlur in="BackgroundImage" stdDeviation="66.5635"/>
<feComposite in2="SourceAlpha" operator="in" result="effect1_backgroundBlur_139_202"/>
<feBlend mode="normal" in="SourceGraphic" in2="effect1_backgroundBlur_139_202" result="shape"/>
</filter>
<clipPath id="clip0_139_202">
<rect width="553" height="482" fill="white"/>
</clipPath>
<clipPath id="clip1_139_202">
<rect width="93.0378" height="93.0378" fill="white" transform="translate(470.265 212.108)"/>
</clipPath>
</defs>
</svg>
