<svg width="262" height="166" viewBox="0 0 262 166" fill="none" xmlns="http://www.w3.org/2000/svg">
<g filter="url(#filter0_b_15_304)">
<rect width="261.959" height="165.335" rx="14.1323" fill="white" fill-opacity="0.2"/>
<rect x="226" y="67.8677" width="8.00001" height="72" rx="4" transform="rotate(90 226 67.8677)" fill="#95ABBC"/>
<rect x="222" y="90" width="8.00001" height="68" rx="4" transform="rotate(90 222 90)" fill="#95ABBC"/>
<rect x="230" y="112.132" width="8.00001" height="76" rx="4" transform="rotate(90 230 112.132)" fill="#95ABBC"/>
<g clip-path="url(#clip0_15_304)">
<path d="M114.646 93.6296C114.646 115.681 96.8138 133.532 74.8478 133.532C52.8818 133.532 35.0494 115.681 35.0494 93.6296C35.0494 71.5783 52.8818 53.7276 74.8478 53.7276C96.8138 53.7276 114.646 71.5783 114.646 93.6296Z" stroke="#0A2640" stroke-width="13.3928"/>
<mask id="mask0_15_304" style="mask-type:alpha" maskUnits="userSpaceOnUse" x="0" y="30" width="74" height="121">
<path d="M73.3643 89.3326L55.2281 30.1758L0.324707 99.9082L29.5076 150.803L73.3643 89.3326Z" fill="#C4C4C4"/>
</mask>
<g mask="url(#mask0_15_304)">
<path d="M114.647 93.629C114.647 115.68 96.8142 133.531 74.8483 133.531C52.8823 133.531 35.0499 115.68 35.0499 93.629C35.0499 71.5777 52.8823 53.727 74.8483 53.727C96.8142 53.727 114.647 71.5777 114.647 93.629Z" stroke="#0DBBFC" stroke-width="13.3928"/>
</g>
<mask id="mask1_15_304" style="mask-type:alpha" maskUnits="userSpaceOnUse" x="49" y="25" width="91" height="85">
<path d="M79.5033 94.5167L139.5 109.208L107.794 26.2483L49.2314 25.2948L79.5033 94.5167Z" fill="#C4C4C4"/>
</mask>
<g mask="url(#mask1_15_304)">
<path d="M54.4484 127.87C35.5562 116.584 29.356 92.0977 40.6022 73.1765C51.8485 54.2554 76.2811 48.0673 95.1733 59.3527C114.066 70.638 120.266 95.1246 109.019 114.046C97.7732 132.967 73.3406 139.155 54.4484 127.87Z" stroke="#69E6A6" stroke-width="13.3928"/>
</g>
</g>
<rect x="0.5" y="0.5" width="260.959" height="164.335" rx="13.6323" stroke="black"/>
</g>
<defs>
<filter id="filter0_b_15_304" x="-133.127" y="-133.127" width="528.213" height="431.589" filterUnits="userSpaceOnUse" color-interpolation-filters="sRGB">
<feFlood flood-opacity="0" result="BackgroundImageFix"/>
<feGaussianBlur in="BackgroundImage" stdDeviation="66.5635"/>
<feComposite in2="SourceAlpha" operator="in" result="effect1_backgroundBlur_15_304"/>
<feBlend mode="normal" in="SourceGraphic" in2="effect1_backgroundBlur_15_304" result="shape"/>
</filter>
<clipPath id="clip0_15_304">
<rect width="93.0378" height="93.0378" fill="white" transform="translate(28.2646 47.1077)"/>
</clipPath>
</defs>
</svg>
